<?xml version="1.0" standalone="no"?><!DOCTYPE svg PUBLIC "-//W3C//DTD SVG 1.1//EN" "http://www.w3.org/Graphics/SVG/1.1/DTD/svg11.dtd"><svg t="1747983662448" class="icon" viewBox="0 0 1024 1024" version="1.1" xmlns="http://www.w3.org/2000/svg" p-id="3375" xmlns:xlink="http://www.w3.org/1999/xlink" width="200" height="200"><path d="M290.171776 733.916229c0 20.340257 16.636912 36.982286 36.97103 36.982286l36.97103 0 0 129.436978c0 30.695093 24.771173 55.473429 55.457056 55.473429s55.457056-24.778336 55.457056-55.473429L475.027947 770.897492l73.943083 0 0 129.436978c0 30.695093 24.771173 55.473429 55.457056 55.473429s55.457056-24.778336 55.457056-55.473429L659.885142 770.897492l36.97103 0c20.334117 0 36.97103-16.642029 36.97103-36.982286L733.827201 364.094392 290.171776 364.094392 290.171776 733.916229zM197.74369 364.094392c-30.685883 0-55.457056 24.778336-55.457056 55.473429l0 258.874979c0 30.695093 24.771173 55.473429 55.457056 55.473429s55.457056-24.778336 55.457056-55.473429L253.200746 419.567821C253.200746 388.872728 228.429573 364.094392 197.74369 364.094392zM826.25631 364.094392c-30.685883 0-55.457056 24.778336-55.457056 55.473429l0 258.874979c0 30.695093 24.771173 55.473429 55.457056 55.473429 30.685883 0 55.457056-24.778336 55.457056-55.473429L881.713366 419.567821C881.713366 388.872728 856.942193 364.094392 826.25631 364.094392zM642.508379 148.118456 690.756243 99.857289c7.209192-7.211239 7.209192-18.860557 0-26.072819-7.209192-7.211239-18.85544-7.211239-26.064632 0l-54.717206 54.54836c-29.576619-14.607696-62.666248-23.113417-97.974405-23.113417-35.492352 0-68.7672 8.505721-98.529037 23.298636l-54.902424-54.918797c-7.209192-7.211239-18.85544-7.211239-26.064632 0-7.209192 7.211239-7.209192 18.860557 0 26.072819l48.432059 48.446385c-54.902424 40.495296-90.76419 105.58371-90.76419 178.99365l443.656449 0C733.828224 253.517971 697.78124 188.429557 642.508379 148.118456zM438.056917 253.147534l-36.97103 0 0-36.982286 36.97103 0L438.056917 253.147534zM622.914112 253.147534l-36.97103 0 0-36.982286 36.97103 0L622.914112 253.147534z" p-id="3376" fill="#ffffff"></path></svg>