<?xml version="1.0" standalone="no"?><!DOCTYPE svg PUBLIC "-//W3C//DTD SVG 1.1//EN" "http://www.w3.org/Graphics/SVG/1.1/DTD/svg11.dtd"><svg t="1748167913973" class="icon" viewBox="0 0 1024 1024" version="1.1" xmlns="http://www.w3.org/2000/svg" p-id="3518" xmlns:xlink="http://www.w3.org/1999/xlink" width="200" height="200"><path d="M877.084441 214.690664 877.084441 147.427724l-67.26294 0L809.821501 80.164784 204.45709 80.164784l0 67.26294-67.26294 0 0 67.26294-67.261916 0 0 605.363388 67.261916 0 0 67.26294 67.26294 0 0 67.261916 605.363388 0 0-67.261916 67.26294 0 0-67.26294 67.261916 0L944.345334 214.690664 877.084441 214.690664zM675.295622 551.002292l-67.261916 0 0 67.26294-67.26294 0 0 67.261916-67.260893 0 0 67.26294-67.26294 0L406.246933 281.953603l67.26294 0 0 67.26294 67.260893 0 0 67.26294 67.26294 0 0 67.26294 67.261916 0L675.295622 551.002292z" fill="#07BEFF" p-id="3519"></path></svg>