<?xml version="1.0" standalone="no"?><!DOCTYPE svg PUBLIC "-//W3C//DTD SVG 1.1//EN" "http://www.w3.org/Graphics/SVG/1.1/DTD/svg11.dtd"><svg t="1748079488428" class="icon" viewBox="0 0 1024 1024" version="1.1" xmlns="http://www.w3.org/2000/svg" p-id="8935" xmlns:xlink="http://www.w3.org/1999/xlink" width="200" height="200"><path d="M480 0h248.2C753.6 0 778 10.2 796 28.2L931.8 164c18 18 28.2 42.4 28.2 67.8V672c0 53-43 96-96 96H480c-53 0-96-43-96-96V96c0-53 43-96 96-96zM160 256h160v128H192v512h384v-64h128v96c0 53-43 96-96 96H160c-53 0-96-43-96-96V352c0-53 43-96 96-96z" p-id="8936" fill="#ffffff"></path></svg>