<?xml version="1.0" standalone="no"?><!DOCTYPE svg PUBLIC "-//W3C//DTD SVG 1.1//EN" "http://www.w3.org/Graphics/SVG/1.1/DTD/svg11.dtd"><svg t="1748607579123" class="icon" viewBox="0 0 1024 1024" version="1.1" xmlns="http://www.w3.org/2000/svg" p-id="4050" xmlns:xlink="http://www.w3.org/1999/xlink" width="200" height="200"><path d="M85.330667 512.016c0 235.640636 191.012698 426.653334 426.653333 426.653333 235.683302 0 426.695999-191.012698 426.696-426.653333 0-235.683302-191.012698-426.695999-426.653334-426.696C276.343364 85.32 85.330667 276.332698 85.330667 511.973334z m426.653333 511.984C229.283502 1024 0 794.759164 0 512.016 0 229.23017 229.240836-0.010666 511.984-0.010666c282.78583 0 512.026666 229.240836 512.026666 511.984 0 282.78583-229.240836 512.026666-511.984 512.026666z" p-id="4051" fill="#ffffff"></path><path d="M511.984 657.078133a675.477558 675.477558 0 0 0 403.486058-145.062133A675.392227 675.392227 0 0 0 511.984 366.953866 675.392227 675.392227 0 0 0 108.583273 512.016 675.477558 675.477558 0 0 0 511.984 657.078133zM42.665333 512.016l-28.756434-31.529682A760.722894 760.722894 0 0 1 512.837307 281.580534a760.722894 760.722894 0 0 1 497.221795 198.905784 42.665333 42.665333 0 0 1 0 63.016698 760.765559 760.765559 0 0 1-498.971074 198.863118A760.765559 760.765559 0 0 1 13.908899 543.503016L42.665333 511.973334z" p-id="4052" fill="#ffffff"></path><path d="M657.046134 512.016A675.434893 675.434893 0 0 0 511.984 108.529942 675.434893 675.434893 0 0 0 366.921867 512.016a675.434893 675.434893 0 0 0 145.062133 403.443392A675.434893 675.434893 0 0 0 657.046134 512.016zM511.984 981.334667l-31.487016 28.756434A760.722894 760.722894 0 0 1 281.5912 511.162693 760.722894 760.722894 0 0 1 480.496984 13.898232a42.665333 42.665333 0 0 1 63.016698 0A760.722894 760.722894 0 0 1 742.376801 512.869306a760.722894 760.722894 0 0 1-198.863119 497.221795L511.984 981.334667z" p-id="4053" fill="#ffffff"></path></svg>