<?xml version="1.0" standalone="no"?><!DOCTYPE svg PUBLIC "-//W3C//DTD SVG 1.1//EN" "http://www.w3.org/Graphics/SVG/1.1/DTD/svg11.dtd"><svg t="1748062209858" class="icon" viewBox="0 0 1024 1024" version="1.1" xmlns="http://www.w3.org/2000/svg" p-id="6928" xmlns:xlink="http://www.w3.org/1999/xlink" width="200" height="200"><path d="M896 960c35.328 0 64-28.672 64-64v-384c0-39.424-3.584-54.272-5.632-59.392-6.656-2.048-20.48-3.584-41.984-4.096l-368.64 215.04c-10.24 5.632-20.992 8.704-32.256 8.704s-22.528-3.072-32.256-8.704L110.08 447.488h-16.896c-12.8 0-20.48 0.512-25.088 1.024-1.536 8.192-4.096 26.112-4.096 63.488v384c0 35.328 28.672 64 64 64h768m0 64H128c-70.656 0-128-57.344-128-128v-384c0-115.2 17.408-128.512 93.184-128.512 10.752 0 22.016 0.512 34.816 0.512l383.488 224.256L896 384c101.888 1.024 128 11.776 128 128v384c0 70.656-57.344 128-128 128z" fill="#ffffff" p-id="6929"></path><path d="M192 448c0 17.92-14.336 32.256-31.744 32.256-17.92 0-32.256-14.336-32.256-32.256V128C128 57.344 185.344 0 256 0h512c70.656 0 128 57.344 128 128v320c0 17.92-14.336 32.256-32.256 32.256s-32.256-14.336-32.256-32.256V128c0-35.328-28.672-64-64-64H256c-35.328 0-64 28.672-64 64v320" fill="#ffffff" p-id="6930"></path><path d="M736.256 256H288.256V192h448V256zM512 384H288.256V320H512V384z" fill="#ffffff" p-id="6931"></path></svg>