<?xml version="1.0" standalone="no"?><!DOCTYPE svg PUBLIC "-//W3C//DTD SVG 1.1//EN" "http://www.w3.org/Graphics/SVG/1.1/DTD/svg11.dtd"><svg t="1748607539182" class="icon" viewBox="0 0 1024 1024" version="1.1" xmlns="http://www.w3.org/2000/svg" p-id="2870" xmlns:xlink="http://www.w3.org/1999/xlink" width="200" height="200"><path d="M512 0L68.608 256v512L512 1024l443.392-256V256z m-45.792 61.664h0.032c12.576 9.376 28.448 15.008 45.6 15.008s33.024-5.632 45.824-15.168l-0.192 0.16 321.44 185.6a82.688 82.688 0 0 0 0.032 17.568l-0.032-0.352-321.504 185.6c-12.576-9.376-28.416-15.008-45.6-15.008s-32.992 5.632-45.792 15.136l0.192-0.16-321.536-185.6a74.752 74.752 0 0 0-0.032-17.504l0.032 0.352z m443.616 254.08c4.64 3.424 9.632 6.272 14.88 8.576v371.2a76.96 76.96 0 0 0-45.6 79.392l-0.032-0.352-321.504 185.6a76.64 76.64 0 0 0-14.4-8.352l-0.48-0.192-0.384-369.184a76.928 76.928 0 0 0 45.632-79.328l0.032 0.352z m-795.648 2.048l321.504 185.6a76.832 76.832 0 0 0 45.12 78.816l0.48 0.192v371.2c-5.28 2.304-10.24 5.216-14.88 8.608l-321.504-185.6a76.896 76.896 0 0 0-45.12-78.816l-0.48-0.192V326.4c5.28-2.304 10.24-5.216 14.88-8.608z" fill="#ffffff" p-id="2871"></path></svg>