<?xml version="1.0" standalone="no"?><!DOCTYPE svg PUBLIC "-//W3C//DTD SVG 1.1//EN" "http://www.w3.org/Graphics/SVG/1.1/DTD/svg11.dtd"><svg t="1747914322069" class="icon" viewBox="0 0 1024 1024" version="1.1" xmlns="http://www.w3.org/2000/svg" p-id="1475" xmlns:xlink="http://www.w3.org/1999/xlink" width="200" height="200"><path d="M512 42.666667c259.2 0 469.333333 210.133333 469.333333 469.333333s-210.133333 469.333333-469.333333 469.333333S42.666667 771.2 42.666667 512 252.8 42.666667 512 42.666667z m108.714667 661.354666H403.285333C427.776 819.285333 471.68 896 512 896c40.32 0 84.224-76.714667 108.714667-191.978667z m-304.917334 0H179.392a385.408 385.408 0 0 0 189.866667 164.565334c-23.253333-44.885333-41.386667-101.056-53.461334-164.565334z m528.810667 0h-136.405333c-12.074667 63.509333-30.208 119.68-53.461334 164.565334a385.344 385.344 0 0 0 189.866667-164.565334zM303.701333 405.333333H142.997333A384.213333 384.213333 0 0 0 128 512c0 37.013333 5.248 72.810667 15.018667 106.666667l160.682666 0.021333A1109.717333 1109.717333 0 0 1 298.666667 512l0.042666-8.853333c0.256-33.536 1.941333-66.261333 4.992-97.813334z m330.56 0H389.76c-3.84 35.413333-5.76 71.04-5.76 106.666667l0.042667 9.024c0.298667 33.877333 2.304 66.602667 5.696 97.664H634.24A980.053333 980.053333 0 0 0 640 512c0-37.098667-2.048-72.874667-5.738667-106.666667z m246.741334 0h-160.704c3.306667 34.325333 5.034667 70.037333 5.034666 106.666667 0 36.650667-1.706667 72.362667-5.034666 106.688h160.682666A384.213333 384.213333 0 0 0 896 512a384.213333 384.213333 0 0 0-14.997333-106.666667zM369.258667 155.413333l-3.669334 1.493334A385.450667 385.450667 0 0 0 179.370667 320h136.426666c12.053333-63.509333 30.208-119.68 53.461334-164.586667zM512 128l-2.56 0.106667c-39.594667 3.136-82.197333 79.04-106.154667 191.893333h217.429334C596.266667 204.736 552.32 128 512 128z m142.741333 27.413333c23.274667 44.949333 41.386667 101.098667 53.461334 164.586667h136.426666a385.408 385.408 0 0 0-189.888-164.586667z" fill="#ffffff" p-id="1476"></path></svg>